Coordinates
version=1
nRows=25
nColumns=28
inDegrees=yes

Units are S.I. units (second, meters, Newtons, ...)
Angles are in degrees.

endheader
time	pelvis_tilt	pelvis_list	pelvis_rotation	pelvis_tx	pelvis_ty	pelvis_tz	hip_flexion_r	hip_adduction_r	hip_rotation_r	knee_angle_r	ankle_angle_r	subtalar_angle_r	mtp_angle_r	hip_flexion_l	hip_adduction_l	hip_rotation_l	knee_angle_l	socket_flexion	socket_adduction	socket_rotation	socket_tx	socket_ty	socket_tz	foot_flex	lumbar_extension	lumbar_bending	lumbar_rotation
      0.31250000	      2.64522640	      0.07227739	     -6.26349013	     -0.42578275	      1.03290632	      0.25775119	     12.78740668	      0.10910758	     -1.37872919	    -65.63093534	      7.45842547	    -15.69644928	     -1.55313074	     -7.30436927	      2.57237039	      9.08210315	      0.80215028	     -0.23918523	      0.00000000	      0.00000000	      0.00000000	      0.00000000	      0.00000000	      0.18122762	    -11.40198901	     -3.59463174	      4.78889437
      0.31666667	      2.80794259	     -0.33488944	     -5.98707859	     -0.41999024	      1.03352388	      0.25726634	     12.99886586	      0.39848473	     -1.82234773	    -65.18438790	      8.55613905	    -14.40093238	     -1.79605246	     -8.26525901	      2.08408601	      9.42235431	      1.90977876	      0.39609989	      0.00000000	      0.00000000	      0.00000000	      0.00000000	      0.00000000	      0.36662901	    -11.60587317	     -3.01753696	      4.30817960
      0.32083333	      2.85841733	     -0.35824648	     -5.92785613	     -0.41498473	      1.03389408	      0.25728404	     13.54938026	      0.42565862	     -1.86047650	    -64.88297535	      8.62095381	    -14.39988971	     -1.79207242	     -8.62209422	      2.09069654	      9.42348942	      1.86149876	      0.31316684	      0.00000000	      0.00000000	      0.00000000	      0.00000000	      0.00000000	      0.40232121	    -11.70544136	     -3.01101672	      4.30668117
      0.32500000	      2.81703016	     -0.74444867	     -5.72699050	     -0.40956875	      1.03432712	      0.25706338	     13.99809343	      0.84893072	     -2.08527795	    -64.34123041	      9.39363591	    -14.10950374	     -1.71814270	     -8.99611513	      1.66330416	      9.53420488	      1.97273396	      0.33180530	      0.00000000	      0.00000000	      0.00000000	      0.00000000	      0.00000000	      0.65828598	    -11.69152375	     -2.50073425	      4.28956849
      0.32916667	      2.86158059	     -0.76114160	     -5.67484767	     -0.40465777	      1.03463359	      0.25712019	     14.54642318	      0.86770828	     -2.12787052	    -63.97965449	      9.45220502	    -14.07756872	     -1.71625828	     -9.34403245	      1.67107295	      9.55047083	      1.94330626	      0.26515511	      0.00000000	      0.00000000	      0.00000000	      0.00000000	      0.00000000	      0.67649758	    -11.79819461	     -2.49636165	      4.27613768
      0.33333333	      2.95336705	     -1.29886912	     -5.26732393	     -0.39880091	      1.03517815	      0.25651788	     14.69510874	      1.29151959	     -2.69422979	    -63.21546491	     10.45798096	    -12.74024059	     -2.01225810	    -10.25511661	      0.98033591	     10.00012128	      3.14410682	      0.96543327	      0.00000000	      0.00000000	      0.00000000	      0.00000000	      0.00000000	      0.78982948	    -11.92101147	     -1.74780595	      3.69441045
      0.33750000	      3.02198766	     -1.54751213	     -5.13253761	     -0.39346839	      1.03560571	      0.25645380	     15.03023105	      1.54710125	     -2.83872404	    -62.57816547	     10.87862059	    -12.54881309	     -2.23981093	    -10.76551648	      0.71245061	     10.03262616	      3.35263111	      1.01994837	      0.00000000	      0.00000000	      0.00000000	      0.00000000	      0.00000000	      0.89848998	    -12.00717807	     -1.44255378	      3.70153751
      0.34166667	      3.08689013	     -1.79622003	     -4.95472659	     -0.38818746	      1.03593219	      0.25623622	     15.37185447	      1.74790819	     -3.08830419	    -61.93175668	     11.31088162	    -12.19321870	     -2.59037587	    -11.32563000	      0.42303704	     10.15631148	      3.76665815	      1.22935452	      0.00000000	      0.00000000	      0.00000000	      0.00000000	      0.00000000	      1.02921922	    -12.10857027	     -1.08745190	      3.53426386
      0.34583333	      3.09886015	     -1.87531418	     -4.85676983	     -0.38310161	      1.03618166	      0.25630534	     15.81766784	      1.84570990	     -3.15400271	    -61.29963662	     11.56351437	    -12.15527947	     -2.60598055	    -11.66557153	      0.34216160	     10.18595191	      3.75834741	      1.18254758	      0.00000000	      0.00000000	      0.00000000	      0.00000000	      0.00000000	      1.12648952	    -12.13508692	     -1.01874839	      3.52474773
      0.35000000	      3.12386372	     -1.88145007	     -4.82647264	     -0.37834037	      1.03625086	      0.25643948	     16.36420843	      1.83846163	     -3.20462018	    -60.83038980	     11.64106673	    -12.14950027	     -2.60458950	    -11.98769305	      0.35061389	     10.19512484	      3.73412661	      1.10031203	      0.00000000	      0.00000000	      0.00000000	      0.00000000	      0.00000000	      1.16864385	    -12.26016416	     -1.01090547	      3.51798001
      0.35416667	      3.22404073	     -2.47646287	     -4.36272487	     -0.37246400	      1.03680367	      0.25584835	     16.36025552	      2.35546299	     -3.76069054	    -59.71955743	     12.48835604	    -11.56506180	     -3.22472384	    -12.79393683	     -0.41032394	     10.55765225	      4.62569762	      1.60708579	      0.00000000	      0.00000000	      0.00000000	      0.00000000	      0.00000000	      1.34652065	    -12.33942697	     -0.19980262	      2.99777519
      0.35833333	      3.24368682	     -2.46704431	     -4.34392153	     -0.36770868	      1.03683663	      0.25599109	     16.87808903	      2.32881454	     -3.80499965	    -59.15469594	     12.56482034	    -11.56962633	     -3.23096808	    -13.10662820	     -0.38350974	     10.55376204	      4.58772110	      1.53906572	      0.00000000	      0.00000000	      0.00000000	      0.00000000	      0.00000000	      1.39750084	    -12.44326731	     -0.21233849	      3.00234908
      0.36250000	      3.15401837	     -2.84305120	     -4.04246057	     -0.36217427	      1.03707322	      0.25575425	     17.16138785	      2.71406830	     -4.09435102	    -58.07224282	     13.02793700	    -11.46675934	     -3.35857545	    -13.40324372	     -0.84067188	     10.69550851	      4.68369373	      1.54470536	      0.00000000	      0.00000000	      0.00000000	      0.00000000	      0.00000000	      1.58318503	    -12.30854265	      0.27122452	      3.00524245
      0.36666667	      3.14857858	     -3.07532063	     -3.82040236	     -0.35690417	      1.03721318	      0.25560884	     17.46723662	      2.91241946	     -4.35334795	    -57.14544413	     13.28636569	    -11.43350892	     -3.57098062	    -13.81632331	     -1.13866067	     10.83424534	      4.92302510	      1.64385372	      0.00000000	      0.00000000	      0.00000000	      0.00000000	      0.00000000	      1.71552406	    -12.32337408	      0.58332011	      2.84608796
      0.37083333	      3.14761466	     -3.05380220	     -3.74854925	     -0.35200995	      1.03721312	      0.25572653	     17.88090642	      2.87811885	     -4.40683834	    -56.34518727	     13.39342515	    -11.45020211	     -3.60761066	    -14.11846550	     -1.10506370	     10.81387095	      4.93565050	      1.63670266	      0.00000000	      0.00000000	      0.00000000	      0.00000000	      0.00000000	      1.78170139	    -12.38077335	      0.54925648	      2.81555315
      0.37500000	      3.12509567	     -3.09137930	     -3.63467384	     -0.34694018	      1.03720078	      0.25580542	     18.24666995	      2.90353528	     -4.50786069	    -55.43847315	     13.57016787	    -11.48770740	     -3.64745558	    -14.41925237	     -1.15203813	     10.82569673	      4.96345799	      1.62606953	      0.00000000	      0.00000000	      0.00000000	      0.00000000	      0.00000000	      1.89235169	    -12.38364844	      0.59079641	      2.78260788
      0.37916667	      3.14176997	     -3.67405042	     -3.18218948	     -0.34136142	      1.03743781	      0.25530845	     18.32376451	      3.41365099	     -5.07979236	    -54.15540612	     13.77336586	    -11.66349960	     -4.22009680	    -15.00183579	     -1.92659984	     11.20685491	      5.55369721	      1.90472581	      0.00000000	      0.00000000	      0.00000000	      0.00000000	      0.00000000	      2.02090132	    -12.40440766	      1.40011920	      2.32731719
      0.38333333	      3.41539968	     -3.95444690	     -3.06962490	     -0.33632399	      1.03779135	      0.25544223	     18.27707159	      3.72319579	     -5.18857440	    -53.08509451	     14.51201241	    -11.70484310	     -6.76228506	    -15.82344906	     -2.26311068	     11.20063930	      6.07050256	      2.16843091	      0.00000000	      0.00000000	      0.00000000	      0.00000000	      0.00000000	      2.15469142	    -12.78880290	      1.71262455	      2.31966958
      0.38750000	      3.38037670	     -3.89808985	     -2.98705050	     -0.33141994	      1.03764818	      0.25554031	     18.66411957	      3.63718241	     -5.28006210	    -52.14844430	     14.63998068	    -11.76138350	     -6.77680385	    -16.02988275	     -2.17999035	     11.14220073	      5.92276410	      2.06038744	      0.00000000	      0.00000000	      0.00000000	      0.00000000	      0.00000000	      2.23940397	    -12.80102201	      1.64360907	      2.30335891
      0.39166667	      3.20270927	     -4.21773225	     -2.65586113	     -0.32603197	      1.03748389	      0.25530233	     18.99101205	      3.90997271	     -5.68369605	    -50.87127147	     14.77394964	    -12.10672736	     -7.02441814	    -16.23209996	     -2.63736293	     11.41406050	      6.11463889	      2.12840304	      0.00000000	      0.00000000	      0.00000000	      0.00000000	      0.00000000	      2.37287891	    -12.59561149	      2.09197727	      2.08119509
      0.39583333	      3.16976284	     -4.14791723	     -2.58337263	     -0.32115063	      1.03728330	      0.25544503	     19.33582725	      3.81573482	     -5.76057754	    -49.84982286	     14.89130718	    -12.18592671	     -7.05829887	    -16.45670264	     -2.54719252	     11.37812471	      6.00733517	      2.05214097	      0.00000000	      0.00000000	      0.00000000	      0.00000000	      0.00000000	      2.47764660	    -12.61854877	      2.00306628	      2.04846627
      0.40000000	      3.10970669	     -4.13159453	     -2.46255339	     -0.31615963	      1.03707710	      0.25552606	     19.64110994	      3.77148073	     -5.88585445	    -48.70905968	     15.03902216	    -12.31898614	     -7.10515452	    -16.66495265	     -2.53822078	     11.39235622	      5.92775018	      1.99691900	      0.00000000	      0.00000000	      0.00000000	      0.00000000	      0.00000000	      2.59551833	    -12.59175198	      1.97958203	      2.01510727
      0.40416667	      3.11728265	     -4.67112451	     -2.07173510	     -0.31075850	      1.03709230	      0.25526660	     19.63375326	      4.30921911	     -6.30931940	    -47.15915887	     15.01292980	    -13.20411130	     -8.01298648	    -17.22959676	     -3.28733891	     11.70113972	      6.56661190	      2.31807642	      0.00000000	      0.00000000	      0.00000000	      0.00000000	      0.00000000	      2.72333544	    -12.64577862	      2.71916672	      1.54369634
      0.40833333	      3.06403336	     -4.57303277	     -2.02096778	     -0.30591498	      1.03677392	      0.25544820	     19.95938363	      4.17612047	     -6.40668241	    -46.04569814	     15.12998463	    -13.25240441	     -8.04570083	    -17.43094302	     -3.16485143	     11.64057457	      6.46756858	      2.25292746	      0.00000000	      0.00000000	      0.00000000	      0.00000000	      0.00000000	      2.81961215	    -12.65960312	      2.59681164	      1.55277695
      0.41250000	      2.99517325	     -4.49853453	     -1.96004592	     -0.30107228	      1.03640789	      0.25564873	     20.27861897	      4.07937215	     -6.52192954	    -44.89531548	     15.25936207	    -13.33065463	     -8.07808302	    -17.61678157	     -3.08041137	     11.62462856	      6.37151733	      2.18806229	      0.00000000	      0.00000000	      0.00000000	      0.00000000	      0.00000000	      2.92016139	    -12.67150497	      2.50795500	      1.55694203
